<?xml version="1.0" encoding="UTF-8" standalone="no"?>
<!-- Created with Inkscape (http://www.inkscape.org/) -->

<svg
   xmlns:osb="http://www.openswatchbook.org/uri/2009/osb"
   xmlns:dc="http://purl.org/dc/elements/1.1/"
   xmlns:cc="http://creativecommons.org/ns#"
   xmlns:rdf="http://www.w3.org/1999/02/22-rdf-syntax-ns#"
   xmlns:svg="http://www.w3.org/2000/svg"
   xmlns="http://www.w3.org/2000/svg"
   xmlns:xlink="http://www.w3.org/1999/xlink"
   xmlns:sodipodi="http://sodipodi.sourceforge.net/DTD/sodipodi-0.dtd"
   xmlns:inkscape="http://www.inkscape.org/namespaces/inkscape"
   width="489.35602mm"
   height="355.54422mm"
   viewBox="0 0 1733.9386 1259.8023"
   id="svg2"
   version="1.1"
   inkscape:version="0.91 r13725"
   sodipodi:docname="ucsections.svg"
   inkscape:export-filename="/home/familia/projetos/pessoais/parumtronics/parumtronics_site/images/ucsections.png"
   inkscape:export-xdpi="270"
   inkscape:export-ydpi="270">
  <defs
     id="defs4">
    <filter
       inkscape:collect="always"
       style="color-interpolation-filters:sRGB"
       id="filter5075"
       x="-0.064766772"
       width="1.1295335"
       y="-0.010159294"
       height="1.0203186">
      <feGaussianBlur
         inkscape:collect="always"
         stdDeviation="1.184721"
         id="feGaussianBlur5077" />
    </filter>
    <filter
       inkscape:collect="always"
       style="color-interpolation-filters:sRGB"
       id="filter5079"
       x="-0.021752253"
       width="1.0435045"
       y="-0.010413001"
       height="1.020826">
      <feGaussianBlur
         inkscape:collect="always"
         stdDeviation="1.184721"
         id="feGaussianBlur5081" />
    </filter>
    <filter
       inkscape:collect="always"
       style="color-interpolation-filters:sRGB"
       id="filter5098"
       x="-0.022579804"
       width="1.0451596"
       y="-0.025610838"
       height="1.0512217">
      <feGaussianBlur
         inkscape:collect="always"
         stdDeviation="2.1070097"
         id="feGaussianBlur5100" />
    </filter>
    <linearGradient
       osb:paint="solid"
       id="linearGradient4902">
      <stop
         id="stop4904"
         offset="0"
         style="stop-color:#dd7575;stop-opacity:1;" />
    </linearGradient>
    <linearGradient
       osb:paint="solid"
       id="linearGradient10096">
      <stop
         id="stop10098"
         offset="0"
         style="stop-color:#000000;stop-opacity:1;" />
    </linearGradient>
  </defs>
  <sodipodi:namedview
     id="base"
     pagecolor="#ffffff"
     bordercolor="#666666"
     borderopacity="1.0"
     inkscape:pageopacity="0.0"
     inkscape:pageshadow="2"
     inkscape:zoom="0.175"
     inkscape:cx="947.82212"
     inkscape:cy="923.43773"
     inkscape:document-units="px"
     inkscape:current-layer="layer1"
     showgrid="false"
     inkscape:window-width="1366"
     inkscape:window-height="704"
     inkscape:window-x="0"
     inkscape:window-y="27"
     inkscape:window-maximized="1"
     showguides="true"
     fit-margin-top="0"
     fit-margin-left="0"
     fit-margin-right="0"
     fit-margin-bottom="0" />
  <metadata
     id="metadata7">
    <rdf:RDF>
      <cc:Work
         rdf:about="">
        <dc:format>image/svg+xml</dc:format>
        <dc:type
           rdf:resource="http://purl.org/dc/dcmitype/StillImage" />
        <dc:title></dc:title>
      </cc:Work>
    </rdf:RDF>
  </metadata>
  <g
     inkscape:label="Camada 1"
     inkscape:groupmode="layer"
     id="layer1"
     transform="translate(-449.68464,276.19215)">
    <g
       id="g5019"
       transform="translate(204.67181,293.56962)">
      <rect
         y="29.767044"
         x="879.62457"
         height="359.61432"
         width="404.061"
         id="rect4136"
         style="fill:#182231;fill-opacity:1;fill-rule:evenodd;stroke:#000000;stroke-width:0.60299999;stroke-linecap:round;stroke-linejoin:round;stroke-miterlimit:4;stroke-dasharray:none;stroke-opacity:1" />
      <g
         transform="translate(0,1.3956791)"
         id="g4971">
        <rect
           style="fill:#182231;fill-opacity:1;fill-rule:evenodd;stroke:#000000;stroke-width:0.35905564;stroke-linecap:round;stroke-linejoin:round;stroke-miterlimit:4;stroke-dasharray:none;stroke-opacity:1"
           id="rect4138"
           width="60.937843"
           height="11.969227"
           x="1306.5365"
           y="51.172451"
           inkscape:tile-cx="1337.0054"
           inkscape:tile-cy="528.41697"
           inkscape:tile-w="61.296899"
           inkscape:tile-h="12.328282"
           inkscape:tile-x0="1306.357"
           inkscape:tile-y0="522.25282" />
        <use
           height="100%"
           width="100%"
           x="0"
           y="0"
           inkscape:tiled-clone-of="#rect4138"
           xlink:href="#rect4138"
           id="use4676"
           inkscape:tile-cx="1337.0054"
           inkscape:tile-cy="528.41697"
           inkscape:tile-w="61.296899"
           inkscape:tile-h="12.328282"
           inkscape:tile-x0="1306.357"
           inkscape:tile-y0="522.25282" />
        <use
           height="100%"
           width="100%"
           x="0"
           y="0"
           inkscape:tiled-clone-of="#rect4138"
           xlink:href="#rect4138"
           transform="translate(0,43.148989)"
           id="use4678" />
        <use
           height="100%"
           width="100%"
           x="0"
           y="0"
           inkscape:tiled-clone-of="#rect4138"
           xlink:href="#rect4138"
           transform="translate(0,86.297977)"
           id="use4680" />
        <use
           height="100%"
           width="100%"
           x="0"
           y="0"
           inkscape:tiled-clone-of="#rect4138"
           xlink:href="#rect4138"
           transform="translate(0,129.44697)"
           id="use4682" />
        <use
           height="100%"
           width="100%"
           x="0"
           y="0"
           inkscape:tiled-clone-of="#rect4138"
           xlink:href="#rect4138"
           transform="translate(0,172.59595)"
           id="use4684" />
        <use
           height="100%"
           width="100%"
           x="0"
           y="0"
           inkscape:tiled-clone-of="#rect4138"
           xlink:href="#rect4138"
           transform="translate(0,215.74494)"
           id="use4686" />
        <use
           height="100%"
           width="100%"
           x="0"
           y="0"
           inkscape:tiled-clone-of="#rect4138"
           xlink:href="#rect4138"
           transform="translate(0,258.89393)"
           id="use4688" />
        <use
           height="100%"
           width="100%"
           x="0"
           y="0"
           inkscape:tiled-clone-of="#rect4138"
           xlink:href="#rect4138"
           transform="translate(0,302.04292)"
           id="use4690" />
        <use
           height="100%"
           width="100%"
           x="0"
           y="0"
           inkscape:tiled-clone-of="#use4676"
           xlink:href="#use4676"
           id="use4804" />
        <use
           height="100%"
           width="100%"
           x="0"
           y="0"
           inkscape:tiled-clone-of="#use4676"
           xlink:href="#use4676"
           transform="translate(0,43.148989)"
           id="use4806" />
        <use
           height="100%"
           width="100%"
           x="0"
           y="0"
           inkscape:tiled-clone-of="#use4676"
           xlink:href="#use4676"
           transform="translate(0,86.297977)"
           id="use4808" />
        <use
           height="100%"
           width="100%"
           x="0"
           y="0"
           inkscape:tiled-clone-of="#use4676"
           xlink:href="#use4676"
           transform="translate(0,129.44697)"
           id="use4810" />
        <use
           height="100%"
           width="100%"
           x="0"
           y="0"
           inkscape:tiled-clone-of="#use4676"
           xlink:href="#use4676"
           transform="translate(0,172.59595)"
           id="use4812" />
        <use
           height="100%"
           width="100%"
           x="0"
           y="0"
           inkscape:tiled-clone-of="#use4676"
           xlink:href="#use4676"
           transform="translate(0,215.74494)"
           id="use4814" />
        <use
           height="100%"
           width="100%"
           x="0"
           y="0"
           inkscape:tiled-clone-of="#use4676"
           xlink:href="#use4676"
           transform="translate(0,258.89393)"
           id="use4816" />
        <use
           height="100%"
           width="100%"
           x="0"
           y="0"
           inkscape:tiled-clone-of="#use4676"
           xlink:href="#use4676"
           transform="translate(0,302.04292)"
           id="use4818" />
      </g>
      <g
         transform="translate(0,9.7808228)"
         id="g4990">
        <rect
           inkscape:tile-y0="522.25282"
           inkscape:tile-x0="1306.357"
           y="42.787334"
           x="795.83588"
           height="11.969227"
           width="60.937843"
           id="use4676-8"
           style="fill:#182231;fill-opacity:1;fill-rule:evenodd;stroke:#000000;stroke-width:0.35905564;stroke-linecap:round;stroke-linejoin:round;stroke-miterlimit:4;stroke-dasharray:none;stroke-opacity:1" />
        <rect
           inkscape:tile-y0="522.25282"
           inkscape:tile-x0="1306.357"
           y="85.936317"
           x="795.83588"
           height="11.969227"
           width="60.937843"
           id="use4678-4"
           style="fill:#182231;fill-opacity:1;fill-rule:evenodd;stroke:#000000;stroke-width:0.35905564;stroke-linecap:round;stroke-linejoin:round;stroke-miterlimit:4;stroke-dasharray:none;stroke-opacity:1" />
        <rect
           inkscape:tile-y0="522.25282"
           inkscape:tile-x0="1306.357"
           y="129.08534"
           x="795.83588"
           height="11.969227"
           width="60.937843"
           id="use4680-3"
           style="fill:#182231;fill-opacity:1;fill-rule:evenodd;stroke:#000000;stroke-width:0.35905564;stroke-linecap:round;stroke-linejoin:round;stroke-miterlimit:4;stroke-dasharray:none;stroke-opacity:1" />
        <rect
           inkscape:tile-y0="522.25282"
           inkscape:tile-x0="1306.357"
           y="172.23433"
           x="795.83588"
           height="11.969227"
           width="60.937843"
           id="use4682-0"
           style="fill:#182231;fill-opacity:1;fill-rule:evenodd;stroke:#000000;stroke-width:0.35905564;stroke-linecap:round;stroke-linejoin:round;stroke-miterlimit:4;stroke-dasharray:none;stroke-opacity:1" />
        <rect
           inkscape:tile-y0="522.25282"
           inkscape:tile-x0="1306.357"
           y="215.38333"
           x="795.83588"
           height="11.969227"
           width="60.937843"
           id="use4684-4"
           style="fill:#182231;fill-opacity:1;fill-rule:evenodd;stroke:#000000;stroke-width:0.35905564;stroke-linecap:round;stroke-linejoin:round;stroke-miterlimit:4;stroke-dasharray:none;stroke-opacity:1" />
        <rect
           inkscape:tile-y0="522.25282"
           inkscape:tile-x0="1306.357"
           y="258.53235"
           x="795.83588"
           height="11.969227"
           width="60.937843"
           id="use4686-8"
           style="fill:#182231;fill-opacity:1;fill-rule:evenodd;stroke:#000000;stroke-width:0.35905564;stroke-linecap:round;stroke-linejoin:round;stroke-miterlimit:4;stroke-dasharray:none;stroke-opacity:1" />
        <rect
           inkscape:tile-y0="522.25282"
           inkscape:tile-x0="1306.357"
           y="301.68134"
           x="795.83588"
           height="11.969227"
           width="60.937843"
           id="use4688-2"
           style="fill:#182231;fill-opacity:1;fill-rule:evenodd;stroke:#000000;stroke-width:0.35905564;stroke-linecap:round;stroke-linejoin:round;stroke-miterlimit:4;stroke-dasharray:none;stroke-opacity:1" />
        <rect
           inkscape:tile-y0="522.25282"
           inkscape:tile-x0="1306.357"
           y="344.8302"
           x="795.83588"
           height="11.969227"
           width="60.937843"
           id="use4690-9"
           style="fill:#182231;fill-opacity:1;fill-rule:evenodd;stroke:#000000;stroke-width:0.35905564;stroke-linecap:round;stroke-linejoin:round;stroke-miterlimit:4;stroke-dasharray:none;stroke-opacity:1" />
      </g>
      <g
         transform="translate(0.79185221,0)"
         id="g4961">
        <use
           height="100%"
           width="100%"
           transform="matrix(0,-1,1,0,881.06985,1273.1042)"
           x="0"
           y="0"
           inkscape:tiled-clone-of="#use4676-8"
           xlink:href="#use4676-8"
           id="use4804-4" />
        <use
           height="100%"
           width="100%"
           x="0"
           y="0"
           inkscape:tiled-clone-of="#use4676-8"
           xlink:href="#use4676-8"
           transform="matrix(0,-1,1,0,924.21883,1273.1042)"
           id="use4806-5" />
        <use
           height="100%"
           width="100%"
           x="0"
           y="0"
           inkscape:tiled-clone-of="#use4676-8"
           xlink:href="#use4676-8"
           transform="matrix(0,-1,1,0,967.36785,1273.1042)"
           id="use4808-1" />
        <use
           height="100%"
           width="100%"
           x="0"
           y="0"
           inkscape:tiled-clone-of="#use4676-8"
           xlink:href="#use4676-8"
           transform="matrix(0,-1,1,0,1010.5169,1273.1042)"
           id="use4810-7" />
        <use
           height="100%"
           width="100%"
           x="0"
           y="0"
           inkscape:tiled-clone-of="#use4676-8"
           xlink:href="#use4676-8"
           transform="matrix(0,-1,1,0,1053.6659,1273.1042)"
           id="use4812-2" />
        <use
           height="100%"
           width="100%"
           x="0"
           y="0"
           inkscape:tiled-clone-of="#use4676-8"
           xlink:href="#use4676-8"
           transform="matrix(0,-1,1,0,1096.8149,1273.1042)"
           id="use4814-3" />
        <use
           height="100%"
           width="100%"
           x="0"
           y="0"
           inkscape:tiled-clone-of="#use4676-8"
           xlink:href="#use4676-8"
           transform="matrix(0,-1,1,0,1139.9639,1273.1042)"
           id="use4816-6" />
        <use
           height="100%"
           width="100%"
           x="0"
           y="0"
           inkscape:tiled-clone-of="#use4676-8"
           xlink:href="#use4676-8"
           transform="matrix(0,-1,1,0,1183.1127,1273.1042)"
           id="use4818-0" />
      </g>
      <g
         transform="translate(2.5021272,0)"
         id="g4951">
        <use
           height="100%"
           width="100%"
           transform="matrix(0,-1,1,0,879.3596,798.65374)"
           x="0"
           y="0"
           inkscape:tiled-clone-of="#use4676-8"
           xlink:href="#use4676-8"
           id="use4804-4-6" />
        <use
           height="100%"
           width="100%"
           x="0"
           y="0"
           inkscape:tiled-clone-of="#use4676-8"
           xlink:href="#use4676-8"
           transform="matrix(0,-1,1,0,922.5086,798.65374)"
           id="use4806-5-4" />
        <use
           height="100%"
           width="100%"
           x="0"
           y="0"
           inkscape:tiled-clone-of="#use4676-8"
           xlink:href="#use4676-8"
           transform="matrix(0,-1,1,0,965.6576,798.65374)"
           id="use4808-1-8" />
        <use
           height="100%"
           width="100%"
           x="0"
           y="0"
           inkscape:tiled-clone-of="#use4676-8"
           xlink:href="#use4676-8"
           transform="matrix(0,-1,1,0,1008.8066,798.65374)"
           id="use4810-7-2" />
        <use
           height="100%"
           width="100%"
           x="0"
           y="0"
           inkscape:tiled-clone-of="#use4676-8"
           xlink:href="#use4676-8"
           transform="matrix(0,-1,1,0,1051.9556,798.65374)"
           id="use4812-2-5" />
        <use
           height="100%"
           width="100%"
           x="0"
           y="0"
           inkscape:tiled-clone-of="#use4676-8"
           xlink:href="#use4676-8"
           transform="matrix(0,-1,1,0,1095.1046,798.65374)"
           id="use4814-3-4" />
        <use
           height="100%"
           width="100%"
           x="0"
           y="0"
           inkscape:tiled-clone-of="#use4676-8"
           xlink:href="#use4676-8"
           transform="matrix(0,-1,1,0,1138.2536,798.65374)"
           id="use4816-6-6" />
        <use
           height="100%"
           width="100%"
           x="0"
           y="0"
           inkscape:tiled-clone-of="#use4676-8"
           xlink:href="#use4676-8"
           transform="matrix(0,-1,1,0,1181.4024,798.65374)"
           id="use4818-0-3" />
      </g>
    </g>
    <g
       id="g5083"
       transform="matrix(0.99558811,0,0,0.90237269,319.12791,123.86945)">
      <path
         inkscape:connector-curvature="0"
         id="path5069"
         d="m 373.57143,-181.92355 102.85714,0 -52.12476,90.282734 53.55334,0 -105.52408,182.77306 38.37003,-143.1989 -63.56024,0 z"
         style="fill:#cc5c41;fill-opacity:1;fill-rule:evenodd;stroke:#000000;stroke-width:1px;stroke-linecap:butt;stroke-linejoin:miter;stroke-opacity:1;filter:url(#filter5079)" />
      <text
         transform="matrix(0,-1,1,0,0,0)"
         sodipodi:linespacing="125%"
         id="text5071"
         y="319.89508"
         x="-90.603897"
         style="font-style:normal;font-weight:normal;font-size:45.27159119px;line-height:125%;font-family:Sans;letter-spacing:0px;word-spacing:0px;fill:#3f1c1c;fill-opacity:1;stroke:none;stroke-width:1px;stroke-linecap:butt;stroke-linejoin:miter;stroke-opacity:1;filter:url(#filter5075)"
         xml:space="preserve"><tspan
           y="319.89508"
           x="-90.603897"
           id="tspan5073"
           sodipodi:role="line">Alimentação</tspan></text>
    </g>
    <flowRoot
       xml:space="preserve"
       id="flowRoot5106"
       style="font-style:normal;font-weight:normal;font-size:15px;line-height:125%;font-family:Sans;letter-spacing:0px;word-spacing:0px;fill:#000000;fill-opacity:1;stroke:none;stroke-width:1px;stroke-linecap:butt;stroke-linejoin:miter;stroke-opacity:1"
       transform="translate(0,-471.2599)"><flowRegion
         id="flowRegion5108"><rect
           id="rect5110"
           width="70"
           height="27.857143"
           x="1525.7142"
           y="225.05064" /></flowRegion><flowPara
         id="flowPara5112"></flowPara></flowRoot>    <g
       id="g5118"
       transform="translate(301.97123,212.59267)">
      <path
         d="m 1611.02,-11.032591 c 1.1924,0.01097 -108.9772,-194.929919 -109.5829,-193.902789 -0.6057,1.02713 223.3029,3.08793 222.7162,2.04982 -0.5867,-1.03811 -114.3256,191.841994 -113.1333,191.852969 z"
         inkscape:randomized="0"
         inkscape:rounded="-0.0053537578"
         inkscape:flatsided="true"
         sodipodi:arg2="2.6271974"
         sodipodi:arg1="1.5799998"
         sodipodi:r2="137.18748"
         sodipodi:r1="128.5907"
         sodipodi:cy="-139.61784"
         sodipodi:cx="1612.2035"
         sodipodi:sides="3"
         id="path5088"
         style="fill:#e4ee1f;fill-opacity:1;fill-rule:evenodd;stroke:#000000;stroke-width:0.60299999;stroke-linecap:round;stroke-linejoin:round;stroke-miterlimit:4;stroke-dasharray:none;stroke-opacity:1;filter:url(#filter5098)"
         sodipodi:type="star" />
      <text
         transform="scale(1.4336788,0.69750631)"
         sodipodi:linespacing="125%"
         id="text5102"
         y="-107.21179"
         x="1079.516"
         style="font-style:normal;font-weight:normal;font-size:226.59628296px;line-height:125%;font-family:Sans;letter-spacing:0px;word-spacing:0px;fill:#000000;fill-opacity:1;stroke:none;stroke-width:1px;stroke-linecap:butt;stroke-linejoin:miter;stroke-opacity:1"
         xml:space="preserve"><tspan
           y="-107.21179"
           x="1079.516"
           id="tspan5104"
           sodipodi:role="line">!</tspan></text>
      <text
         transform="scale(1.017483,0.98281738)"
         sodipodi:linespacing="125%"
         id="text5114"
         y="-222.86191"
         x="1514.1312"
         style="font-style:normal;font-weight:normal;font-size:43.04831696px;line-height:125%;font-family:Sans;letter-spacing:0px;word-spacing:0px;fill:#000000;fill-opacity:1;stroke:none;stroke-width:1px;stroke-linecap:butt;stroke-linejoin:miter;stroke-opacity:1"
         xml:space="preserve"><tspan
           y="-222.86191"
           x="1514.1312"
           id="tspan5116"
           sodipodi:role="line">Debug</tspan></text>
    </g>
    <g
       transform="matrix(1.6428243,0,0,1.3910268,2039.0547,940.4883)"
       id="g4803">
      <path
         style="fill:#aab2ab"
         inkscape:connector-curvature="0"
         d="M 2.499,0.352 85.626,0.5 c 1.161,0 2.198,-0.173 2.198,2.333 l -0.102,27.552 -87.321,0 0,-27.655 c 0,-1.235 0.119,-2.378 2.098,-2.378 z"
         id="path4789" />
      <path
         style="fill:#ffffff"
         inkscape:connector-curvature="0"
         d="M 25.316,14.449 C 25.319,20.006 20.845,24.514 15.323,24.518 9.801,24.521 5.322,20.018 5.318,14.461 l 0,-0.012 C 5.315,8.891 9.789,4.383 15.312,4.38 c 5.522,-0.004 10.001,4.5 10.005,10.057 -0.001,0.003 -0.001,0.007 -0.001,0.012 z M 46.464,3.306 c 4.349,0 7.875,3.548 7.875,7.925 0,4.377 -3.526,7.926 -7.875,7.926 -4.35,0 -7.875,-3.548 -7.875,-7.926 -10e-4,-4.377 3.525,-7.925 7.875,-7.925 z m 28.632,7.751 c 0.003,4.314 -3.47,7.814 -7.757,7.818 -4.286,0.003 -7.765,-3.492 -7.769,-7.806 l 0,-0.012 c -0.002,-4.314 3.471,-7.814 7.758,-7.817 4.287,-0.003 7.765,3.492 7.768,7.806 l 0,0.011 z"
         id="path4791" />
      <path
         inkscape:connector-curvature="0"
         d="m 23.446,6.252 c 2.217,2.232 3.326,4.964 3.326,8.197 0,3.233 -1.089,5.936 -3.269,8.11 -2.313,2.289 -5.046,3.434 -8.2,3.434 -3.116,0 -5.802,-1.135 -8.057,-3.405 C 4.99,20.317 3.863,17.606 3.863,14.45 3.863,11.294 4.99,8.561 7.246,6.252 9.444,4.02 12.13,2.904 15.303,2.904 c 3.212,0 5.926,1.116 8.143,3.348 z M 8.739,7.753 c -1.875,1.905 -2.812,4.138 -2.812,6.698 0,2.561 0.928,4.773 2.783,6.64 1.855,1.867 4.064,2.801 6.627,2.801 2.563,0 4.791,-0.942 6.684,-2.829 1.797,-1.752 2.697,-3.955 2.697,-6.611 0,-2.636 -0.914,-4.874 -2.74,-6.712 -1.826,-1.838 -4.04,-2.757 -6.641,-2.757 -2.601,0 -4.801,0.923 -6.598,2.77 z m 4.933,5.572 c -0.287,-0.628 -0.715,-0.942 -1.287,-0.942 -1.011,0 -1.516,0.685 -1.516,2.054 0,1.37 0.505,2.055 1.516,2.055 0.667,0 1.145,-0.333 1.431,-1.002 l 1.401,0.751 c -0.668,1.194 -1.67,1.792 -3.006,1.792 -1.03,0 -1.856,-0.317 -2.476,-0.954 -0.621,-0.636 -0.931,-1.512 -0.931,-2.629 0,-1.099 0.32,-1.97 0.959,-2.616 0.639,-0.646 1.436,-0.968 2.39,-0.968 1.413,0 2.424,0.56 3.035,1.679 l -1.516,0.78 z m 6.593,0 c -0.287,-0.628 -0.707,-0.942 -1.261,-0.942 -1.031,0 -1.547,0.685 -1.547,2.054 0,1.37 0.516,2.055 1.547,2.055 0.669,0 1.137,-0.333 1.404,-1.002 l 1.433,0.751 c -0.667,1.194 -1.667,1.792 -3.001,1.792 -1.029,0 -1.853,-0.317 -2.473,-0.954 -0.619,-0.636 -0.928,-1.512 -0.928,-2.629 0,-1.099 0.314,-1.97 0.943,-2.616 0.628,-0.646 1.428,-0.968 2.4,-0.968 1.41,0 2.42,0.56 3.029,1.679 l -1.546,0.78 z M 86.353,0 1.647,0 C 0.739,0 0,0.744 0,1.658 L 0,30.625 C 0,30.832 0.167,31 0.372,31 l 87.256,0 C 87.833,31 88,30.832 88,30.625 L 88,1.658 C 88,0.744 87.261,0 86.353,0 Z m -84.706,0.749 84.705,0 c 0.498,0 0.903,0.408 0.903,0.909 l 0,20.109 -60.541,0 c -2.219,4.038 -6.494,6.779 -11.401,6.779 -4.908,0 -9.183,-2.738 -11.4,-6.779 l -3.169,0 0,-20.109 c 0,-0.501 0.405,-0.909 0.903,-0.909 z M 67.277,2.5 c -2.355,0 -4.349,0.827 -5.98,2.481 -1.675,1.712 -2.512,3.737 -2.512,6.077 0,2.34 0.837,4.351 2.512,6.034 1.674,1.683 3.668,2.524 5.98,2.524 2.342,0 4.371,-0.849 6.089,-2.546 1.616,-1.611 2.427,-3.616 2.427,-6.012 0,-2.396 -0.824,-4.422 -2.471,-6.077 C 71.677,3.327 69.662,2.5 67.277,2.5 Z m 0.022,1.54 c 1.93,0 3.569,0.685 4.918,2.054 1.361,1.355 2.043,3.01 2.043,4.964 0,1.968 -0.666,3.602 -2.001,4.9 -1.405,1.397 -3.058,2.096 -4.96,2.096 -1.901,0 -3.541,-0.691 -4.917,-2.074 -1.376,-1.384 -2.064,-3.024 -2.064,-4.921 0,-1.897 0.695,-3.552 2.086,-4.964 1.332,-1.371 2.965,-2.055 4.895,-2.055 z m -3.791,5.809 c 0.34,-2.153 1.846,-3.304 3.733,-3.304 2.716,0 4.369,1.982 4.369,4.626 0,2.58 -1.76,4.584 -4.411,4.584 -1.824,0 -3.457,-1.13 -3.755,-3.347 l 2.143,0 c 0.063,1.151 0.806,1.556 1.866,1.556 1.209,0 1.994,-1.13 1.994,-2.857 0,-1.812 -0.679,-2.771 -1.951,-2.771 -0.934,0 -1.739,0.341 -1.909,1.513 L 66.21,9.846 64.523,11.543 62.837,9.846 63.508,9.849 Z M 48.743,8.938 c 0,-0.306 -0.246,-0.553 -0.55,-0.553 l -3.478,0 c -0.303,0 -0.55,0.247 -0.55,0.553 l 0,3.5 0.971,0 0,4.145 2.636,0 0,-4.145 0.971,0 0,-3.5 z M 46.455,5.53 c 0.656,0 1.189,0.536 1.189,1.197 0,0.661 -0.533,1.197 -1.189,1.197 -0.657,0 -1.189,-0.536 -1.189,-1.197 0,-0.661 0.532,-1.197 1.189,-1.197 z M 46.443,2.5 c -2.355,0 -4.349,0.827 -5.981,2.481 -1.675,1.711 -2.512,3.737 -2.512,6.076 0,2.339 0.837,4.351 2.512,6.034 1.674,1.683 3.668,2.524 5.981,2.524 2.342,0 4.371,-0.849 6.088,-2.547 1.619,-1.611 2.428,-3.615 2.428,-6.012 0,-2.397 -0.823,-4.421 -2.47,-6.076 C 50.844,3.326 48.828,2.5 46.443,2.5 Z m 0.022,1.539 c 1.93,0 3.569,0.685 4.917,2.054 1.363,1.355 2.044,3.01 2.044,4.963 0,1.968 -0.666,3.602 -2.001,4.9 -1.405,1.398 -3.058,2.096 -4.96,2.096 -1.901,0 -3.541,-0.691 -4.917,-2.075 -1.377,-1.383 -2.065,-3.023 -2.065,-4.921 0,-1.896 0.695,-3.551 2.086,-4.963 1.334,-1.369 2.966,-2.054 4.896,-2.054 z"
         id="path4793" />
      <path
         style="fill:#ffffff"
         inkscape:connector-curvature="0"
         d="m 69.277,24.171 1.816,4.888 -1.109,0 -0.367,-1.089 -1.816,0 -0.381,1.089 -1.074,0 1.836,-4.888 1.095,0 z m 0.062,2.997 -0.612,-1.793 -0.014,0 -0.633,1.793 1.259,0 z M 63.26,27.85 c 0.059,0.115 0.137,0.207 0.234,0.277 0.098,0.071 0.211,0.124 0.342,0.158 0.133,0.034 0.268,0.051 0.408,0.051 0.095,0 0.197,-0.008 0.306,-0.023 0.109,-0.015 0.21,-0.047 0.306,-0.093 0.094,-0.046 0.174,-0.108 0.236,-0.188 0.064,-0.08 0.096,-0.181 0.096,-0.305 0,-0.132 -0.042,-0.238 -0.126,-0.321 -0.083,-0.083 -0.194,-0.15 -0.329,-0.206 -0.136,-0.055 -0.29,-0.102 -0.461,-0.143 -0.173,-0.042 -0.348,-0.088 -0.523,-0.138 -0.182,-0.046 -0.358,-0.102 -0.531,-0.167 -0.171,-0.066 -0.325,-0.152 -0.461,-0.258 -0.137,-0.104 -0.246,-0.235 -0.33,-0.393 -0.083,-0.158 -0.125,-0.349 -0.125,-0.572 0,-0.252 0.053,-0.469 0.16,-0.654 0.105,-0.184 0.246,-0.338 0.418,-0.462 0.172,-0.123 0.366,-0.214 0.584,-0.274 0.217,-0.059 0.436,-0.088 0.652,-0.088 0.254,0 0.497,0.028 0.73,0.086 0.232,0.057 0.44,0.149 0.621,0.277 0.182,0.127 0.326,0.291 0.432,0.49 0.107,0.198 0.16,0.439 0.16,0.723 l -1.036,0 c -0.009,-0.146 -0.04,-0.268 -0.091,-0.363 -0.053,-0.096 -0.121,-0.172 -0.207,-0.227 -0.086,-0.055 -0.184,-0.094 -0.295,-0.115 -0.11,-0.023 -0.23,-0.035 -0.361,-0.035 -0.086,0 -0.172,0.01 -0.258,0.027 -0.086,0.019 -0.163,0.051 -0.232,0.096 -0.07,0.047 -0.129,0.104 -0.174,0.172 -0.045,0.068 -0.067,0.155 -0.067,0.26 0,0.096 0.019,0.174 0.054,0.232 0.037,0.061 0.109,0.115 0.215,0.165 0.106,0.05 0.254,0.101 0.441,0.151 0.188,0.049 0.434,0.113 0.736,0.191 0.092,0.018 0.217,0.051 0.377,0.1 0.161,0.047 0.32,0.123 0.479,0.229 0.159,0.105 0.296,0.246 0.412,0.422 0.115,0.176 0.173,0.4 0.173,0.674 0,0.225 -0.044,0.432 -0.13,0.623 -0.086,0.192 -0.214,0.357 -0.384,0.496 -0.171,0.141 -0.381,0.248 -0.632,0.326 -0.252,0.078 -0.544,0.116 -0.874,0.116 -0.268,0 -0.527,-0.033 -0.779,-0.1 -0.251,-0.065 -0.474,-0.171 -0.667,-0.312 -0.192,-0.143 -0.346,-0.323 -0.459,-0.543 -0.113,-0.219 -0.168,-0.479 -0.163,-0.78 l 1.036,0 c -0.001,0.165 0.028,0.304 0.087,0.418 z m -17.287,-3.679 1.198,0 1.138,1.931 1.13,-1.931 1.19,0 -1.803,3.012 0,1.876 -1.07,0 0,-1.903 -1.783,-2.985 z m -1.975,0 c 0.231,0 0.442,0.021 0.633,0.062 0.191,0.041 0.354,0.108 0.491,0.201 0.136,0.094 0.241,0.219 0.316,0.373 0.075,0.155 0.112,0.348 0.112,0.575 0,0.247 -0.055,0.451 -0.167,0.616 -0.11,0.164 -0.276,0.298 -0.493,0.402 0.3,0.088 0.523,0.239 0.672,0.456 0.148,0.218 0.223,0.479 0.223,0.784 0,0.246 -0.049,0.46 -0.144,0.641 -0.095,0.18 -0.224,0.327 -0.386,0.441 -0.161,0.114 -0.346,0.199 -0.552,0.254 -0.207,0.055 -0.419,0.082 -0.638,0.082 l -2.358,0 0,-4.888 2.291,0 0,10e-4 z m -0.137,1.976 c 0.191,0 0.347,-0.046 0.47,-0.136 0.123,-0.092 0.185,-0.239 0.185,-0.444 0,-0.114 -0.021,-0.208 -0.062,-0.28 -0.041,-0.072 -0.095,-0.129 -0.164,-0.17 -0.069,-0.041 -0.146,-0.07 -0.235,-0.086 -0.089,-0.016 -0.181,-0.023 -0.276,-0.023 l -1,0 0,1.14 1.082,0 z m 0.062,2.075 c 0.105,0 0.205,-0.01 0.3,-0.03 0.095,-0.021 0.18,-0.055 0.252,-0.104 0.073,-0.047 0.13,-0.112 0.174,-0.194 0.044,-0.082 0.065,-0.187 0.065,-0.315 0,-0.25 -0.071,-0.43 -0.212,-0.536 -0.141,-0.107 -0.328,-0.161 -0.559,-0.161 l -1.166,0 0,1.341 1.146,0 z"
         id="path4795" />
    </g>
    <path
       style="fill:#babc98;fill-opacity:1;fill-rule:evenodd;stroke:#000000;stroke-width:1.2499311;stroke-linecap:round;stroke-linejoin:round;stroke-miterlimit:4;stroke-dasharray:none;stroke-opacity:1"
       d="m 789.45212,188.2379 c -3.08997,2.82997 -3.01043,6.82821 0.18109,8.96392 l 88.28738,59.08092 c 0.0466,0.0311 0.10041,0.0496 0.14776,0.0796 -15.19119,13.86254 -28.74643,26.1547 -28.82433,25.96911 -0.19385,-0.46184 114.90005,14.19102 114.48101,14.57481 -0.41906,0.38382 -36.81914,-86.34141 -36.20624,-86.26336 0.2463,0.0313 -13.15219,12.42496 -28.27888,26.32928 -0.0452,-0.0319 -0.0768,-0.0708 -0.12339,-0.10192 l -88.28731,-59.08093 c -3.19151,-2.13572 -8.24885,-1.57501 -11.33882,1.25495 l -10.03827,9.19363 z"
       id="path6351"
       inkscape:connector-curvature="0" />
    <path
       style="opacity:0.95;fill:#babc98;fill-opacity:1;fill-rule:evenodd;stroke:#000000;stroke-width:1.3669461;stroke-linecap:round;stroke-linejoin:round;stroke-miterlimit:4;stroke-dasharray:none;stroke-opacity:1"
       d="m 1819.1295,109.32319 c 0.3199,0.39342 -86.5321,23.67283 -86.3899,23.15561 0.054,-0.19715 9.5358,11.30679 20.3695,24.54478 l -70.7125,74.50214 c -10.7433,-13.33365 -20.0772,-24.99221 -19.9005,-25.03892 0.4629,-0.12227 -26.5141,96.88796 -26.8333,96.4937 -0.3192,-0.39426 86.5889,-23.37241 86.4451,-22.85588 -0.055,0.19735 -9.501,-11.34319 -20.2989,-24.61908 l 70.7768,-74.56995 c 10.7791,13.29572 20.1415,24.9238 19.9648,24.97109 -0.4624,0.1241 26.2586,-96.97663 26.5789,-96.58349 z"
       id="path6356"
       inkscape:connector-curvature="0" />
  </g>
</svg>
